<?xml version="1.0" encoding="utf-8"?>
<!-- Designed by Vexels.com - 2017 All Rights Reserved - https://vexels.com/terms-and-conditions/  -->

<svg version="1.1" id="Layer_1" xmlns="http://www.w3.org/2000/svg" xmlns:xlink="http://www.w3.org/1999/xlink" x="0px" y="0px"
	 width="1200px" height="1200px" viewBox="0 0 1200 1200" enable-background="new 0 0 1200 1200" xml:space="preserve">
<g>
	<path fill="#282727" d="M254.634,757.698l748.147-16.564l16.765-1.583l17.648-3.944v-32.435l-8.532,0.143
		c-0.326-9.567-0.652-22.964-0.431-36.524c0.431-25.767,2.543-38.05,3.982-43.51l17.351,0.067l0.038-35.727l-26.524-2.639
		l-8.992-0.71l-0.22-18.808c-0.269-9.174-0.567-22.321-0.519-35.65c0.058-23.646,1.133-36.159,2.016-42.484l13.243,0.086
		l2.399-31.793l-1.593-3.732l-0.173-1.756H130.716l-3.234,3.147c-7.092,6.909-14.663,21.39-10.297,72.481
		c2.237,26.218,6.612,49.892,6.804,50.891l1.19,6.429l45.976,19.903c-2.668,30.575,1.133,94.717,1.641,102.836l-0.48,13.492
		L254.634,757.698z M233.657,671.388c0.095,11.43,0.355,22.839,0.652,32.666l-27.311-15.191c-1.728-8.695-1.708-33.76,1.363-69.756
		l26.188,11.333C233.848,640.861,233.542,654.612,233.657,671.388z M283.318,507.499l697.785-19.241
		c-1.055,10.058-1.593,23.243-1.67,40.123c-0.058,14.232,0.258,28.223,0.536,38.002l-697.717,18.761
		c-0.48-9.615-0.96-22.052-1.055-34.71C281.005,526.933,282.224,514.188,283.318,507.499z M266.438,650.333
		c0.096-5.268,0.269-10,0.499-14.193l730.576-12.601c-1.881,10.825-2.918,24.808-3.206,42.551
		c-0.23,14.001,0.077,27.676,0.423,37.781l-727.342,11.737c-0.192-5.028-0.413-11.161-0.586-17.879l-0.441-42.272v-0.451
		C266.438,653.49,266.476,651.945,266.438,650.333z M151.943,485.533c1.047-0.058,2.198-0.086,3.475-0.077
		c29.106,0.019,80.12,15.862,95.052,20.709c-1.478,11.017-2.092,25.574-1.957,44.48c0.096,12.044,0.518,23.923,0.979,33.482
		l-98.076-27.619C149.4,545.022,149.947,514.054,151.943,485.533z"/>
	<path fill="#282727" d="M1072.671,783.809h23.493v-50.775H290.9H145.754c0,0-95.754,26.794-95.754,107.931
		c0,81.147,89.266,109.735,89.266,109.735h158.101c0,0-0.298-0.173-0.768-0.48h799.565v-50.775h-29.154
		C1054.995,862.145,1066.684,807.004,1072.671,783.809z M290.9,899.446c0,0-35.815-0.058-35.815-58.126
		c0-52.29,35.815-57.511,35.815-57.511h747.302c-17.446,55.429-15.987,93.67-11.784,115.637H290.9z"/>
	<path fill="#282727" d="M1060.561,249.308h-1.305H381.94c0,0-80.668,29.25-83.652,33.962c-2.994,4.712,5.988,29.893,5.988,29.893
		l11.526-1.939c3.819,16.238,16.64,74.373,11.823,102.077l-15.863-0.998l1.498,33.05l76.339,29.903l-0.441-8.762h665.301
		c-0.383,0.307-0.643,0.48-0.643,0.48h23.319c0,0,72.866-6.563,72.866-109.735C1150,246.256,1060.561,249.308,1060.561,249.308z
		 M406.45,415.719h-24.51v1.007l-35.795-2.255c1.584-24.048,2.573-69.66-8.329-106.961l44.124-7.428h19.76
		C406.738,323.277,416.565,378.418,406.45,415.719z M1059.256,415.719H440.594c3.541-21.967,4.759-60.208-9.903-115.637h628.565
		c0,0,30.123,5.221,30.123,57.512C1089.379,415.661,1059.256,415.719,1059.256,415.719z"/>
</g>
</svg>
